<?xml version="1.0" encoding="utf-8"?>
<!-- Generator: Adobe Illustrator 25.2.0, SVG Export Plug-In . SVG Version: 6.00 Build 0)  -->
<svg version="1.1" id="Layer_1" xmlns="http://www.w3.org/2000/svg" xmlns:xlink="http://www.w3.org/1999/xlink" x="0px" y="0px"
	 viewBox="0 0 24 24" style="enable-background:new 0 0 24 24;" xml:space="preserve">
<style type="text/css">
	.st0{fill:#E03535;}
</style>
<path class="st0" d="M12.1,1c2.2,0,4,1.8,4,4s-1.8,4-4,4s-4-1.8-4-4S9.9,1,12.1,1z M12.1,0c-2.8,0-5,2.2-5,5s2.2,5,5,5s5-2.2,5-5
	S14.8,0,12.1,0z M12.3,7.5V8h-0.5V7.5c-0.5,0-1.1-0.1-1.5-0.4l0.2-0.8c0.5,0.2,1.1,0.4,1.6,0.3c0.6-0.1,0.7-0.7,0.1-1
	c-0.5-0.2-1.9-0.4-1.9-1.6c0-0.7,0.5-1.3,1.5-1.4V2h0.5v0.5c0.4,0,0.8,0.1,1.2,0.2l-0.2,0.8c-0.4-0.1-0.8-0.3-1.2-0.2
	c-0.7,0-0.8,0.7-0.3,1c0.9,0.4,2,0.7,2,1.8C13.8,6.9,13.2,7.4,12.3,7.5z M12.1,14c-2.8,0-5,2.2-5,5s2.2,5,5,5s5-2.2,5-5
	S14.8,14,12.1,14z M13.1,18.3L13,18.8h-1.8c0,0.2,0,0.3,0,0.5h1.7l-0.1,0.5h-1.5c0.2,0.7,0.7,1.3,1.5,1.3c0.2,0,0.5,0,0.7-0.1
	l0.2,0.7c-0.3,0.1-0.7,0.2-1,0.2c-1.5,0-2.3-1-2.5-2.1H9.4l0.1-0.5h0.6c0-0.2,0-0.3,0-0.5H9.6l0.1-0.5h0.5c0.2-1.1,1.1-2.1,2.4-2.1
	c0.4,0,0.8,0.1,1.2,0.2l-0.2,0.7C13.3,17.1,13,17,12.7,17c-0.8,0-1.2,0.6-1.4,1.3L13.1,18.3L13.1,18.3z M21.7,9.4
	c1.2,2.4,1.5,6.8-2.6,9.8c0-0.9-0.1-1.7-0.4-2.6c2.1-1.7,2.1-4.3,1.2-6.2l-2.4,1.2l1.6-5.2l5,1.7C24.1,8.1,21.7,9.4,21.7,9.4z
	 M2.5,15C1.3,12.6,1.1,7.9,5.2,4.9c0,0.9,0.1,1.7,0.4,2.6C3.5,9.2,3.5,12.1,4.3,14l2.4-1.2L5.1,18l-5-1.7C0.1,16.3,2.5,15,2.5,15z"
	/>
</svg>
